<svg preserveAspectRatio="none" width="100%" height="100%" overflow="visible" style="display: block;" viewBox="0 0 24 24" fill="none" xmlns="http://www.w3.org/2000/svg">
<g id="ant-design:close-outlined">
<path id="Vector" fill-rule="evenodd" clip-rule="evenodd" d="M18.7466 3.89794C18.7471 3.8981 18.7476 3.89836 18.7486 3.89932L20.1007 5.25143C20.1016 5.25239 20.1019 5.25284 20.1021 5.2534C20.1023 5.25392 20.1023 5.25449 20.1021 5.25502C20.1019 5.25556 20.1016 5.256 20.1007 5.25696L13.3576 12L20.1007 18.743C20.1016 18.744 20.1019 18.7444 20.1021 18.745C20.1022 18.7455 20.1022 18.7461 20.1021 18.7466C20.1019 18.7471 20.1016 18.7476 20.1007 18.7486L18.7486 20.1007C18.7476 20.1016 18.7472 20.1019 18.7466 20.1021C18.7461 20.1023 18.7455 20.1023 18.745 20.1021C18.7444 20.1019 18.744 20.1016 18.743 20.1007L12 13.3576L5.25696 20.1007C5.25602 20.1016 5.25556 20.1019 5.25502 20.1021C5.25448 20.1022 5.25391 20.1022 5.25338 20.1021C5.25286 20.1019 5.25239 20.1016 5.25143 20.1007L3.89932 18.7486C3.89836 18.7476 3.8981 18.7472 3.89794 18.7466C3.89775 18.7461 3.89775 18.7455 3.89794 18.745C3.8981 18.7444 3.89836 18.744 3.89932 18.743L10.6423 12L3.89932 5.25696C3.89836 5.25602 3.8981 5.25556 3.89794 5.25502C3.89777 5.25448 3.89777 5.25391 3.89794 5.25338C3.8981 5.25286 3.89836 5.25239 3.89932 5.25143L5.25143 3.89932C5.25239 3.89836 5.25284 3.8981 5.2534 3.89794C5.25392 3.89775 5.25449 3.89775 5.25502 3.89794C5.25556 3.8981 5.256 3.89836 5.25696 3.89932L12 10.6423L18.743 3.89932C18.744 3.89836 18.7444 3.8981 18.745 3.89794C18.7455 3.89777 18.7461 3.89777 18.7466 3.89794H18.7466Z" fill="var(--fill-0, #222222)"/>
</g>
</svg>
