<svg preserveAspectRatio="none" width="100%" height="100%" overflow="visible" style="display: block;" viewBox="0 0 32 32" fill="none" xmlns="http://www.w3.org/2000/svg">
<g id="wifi">
<path id="Wifi" fill-rule="evenodd" clip-rule="evenodd" d="M15.5713 12.4663C18.0584 12.4664 20.4504 13.3885 22.2529 15.0419C22.3887 15.1696 22.6056 15.168 22.7393 15.0383L24.0368 13.7749C24.1045 13.7091 24.1422 13.62 24.1417 13.5274C24.1411 13.4347 24.1023 13.346 24.0338 13.281C19.3028 8.90632 11.8391 8.90632 7.10806 13.281C7.03952 13.346 7.00064 13.4346 7.00001 13.5273C6.99938 13.62 7.03705 13.7091 7.10469 13.7749L8.40255 15.0383C8.53615 15.1682 8.75327 15.1698 8.88893 15.0419C10.6917 13.3884 13.0839 12.4663 15.5713 12.4663ZM15.5679 16.6866C16.9253 16.6865 18.2341 17.1982 19.2403 18.1223C19.3763 18.2535 19.5907 18.2507 19.7234 18.1159L21.0106 16.7966C21.0784 16.7274 21.1161 16.6335 21.1151 16.536C21.1141 16.4384 21.0746 16.3454 21.0054 16.2776C17.9416 13.3867 13.1969 13.3867 10.133 16.2776C10.0638 16.3454 10.0244 16.4385 10.0234 16.5361C10.0225 16.6337 10.0603 16.7275 10.1282 16.7966L11.4151 18.1159C11.5478 18.2507 11.7621 18.2535 11.8982 18.1223C12.9037 17.1988 14.2115 16.6871 15.5679 16.6866ZM18.0924 19.4801C18.0943 19.5855 18.0572 19.687 17.9899 19.7608L15.8133 22.2156C15.7495 22.2877 15.6625 22.3283 15.5717 22.3283C15.4809 22.3283 15.3939 22.2877 15.3301 22.2156L13.1531 19.7608C13.0859 19.687 13.0489 19.5854 13.0509 19.48C13.0528 19.3747 13.0937 19.2749 13.1636 19.2043C14.5537 17.8904 16.5897 17.8904 17.9798 19.2043C18.0497 19.275 18.0904 19.3748 18.0924 19.4801Z" fill="var(--fill-0, black)"/>
</g>
</svg>
