<svg preserveAspectRatio="none" width="100%" height="100%" overflow="visible" style="display: block;" viewBox="0 0 27.328 13" fill="none" xmlns="http://www.w3.org/2000/svg">
<g id="battery">
<path d="M26 4.5V8.57547C26.8047 8.2303 27.328 7.42734 27.328 6.53774C27.328 5.64813 26.8047 4.84517 26 4.5Z" fill="var(--fill-0, black)"/>
<path d="M2 6C2 4.59987 2 3.8998 2.27248 3.36502C2.51217 2.89462 2.89462 2.51217 3.36502 2.27248C3.8998 2 4.59987 2 6 2H19C20.4001 2 21.1002 2 21.635 2.27248C22.1054 2.51217 22.4878 2.89462 22.7275 3.36502C23 3.8998 23 4.59987 23 6V7C23 8.40013 23 9.1002 22.7275 9.63498C22.4878 10.1054 22.1054 10.4878 21.635 10.7275C21.1002 11 20.4001 11 19 11H6C4.59987 11 3.8998 11 3.36502 10.7275C2.89462 10.4878 2.51217 10.1054 2.27248 9.63498C2 9.1002 2 8.40013 2 7V6Z" fill="var(--fill-0, black)"/>
</g>
</svg>
