<svg preserveAspectRatio="none" width="100%" height="100%" overflow="visible" style="display: block;" viewBox="0 0 32 32" fill="none" xmlns="http://www.w3.org/2000/svg">
<g id="cellular">
<path id="Cellular Connection" fill-rule="evenodd" clip-rule="evenodd" d="M25.2 11.1462C25.2 10.5132 24.7224 10 24.1333 10H23.0667C22.4776 10 22 10.5132 22 11.1462V21.0802C22 21.7132 22.4776 22.2264 23.0667 22.2264H24.1333C24.7224 22.2264 25.2 21.7132 25.2 21.0802V11.1462ZM17.7659 12.4453H18.8326C19.4217 12.4453 19.8992 12.9708 19.8992 13.619V21.0527C19.8992 21.7009 19.4217 22.2264 18.8326 22.2264H17.7659C17.1768 22.2264 16.6992 21.7009 16.6992 21.0527V13.619C16.6992 12.9708 17.1768 12.4453 17.7659 12.4453ZM13.4341 15.0943H12.3674C11.7783 15.0943 11.3008 15.6265 11.3008 16.283V21.0377C11.3008 21.6942 11.7783 22.2264 12.3674 22.2264H13.4341C14.0232 22.2264 14.5008 21.6942 14.5008 21.0377V16.283C14.5008 15.6265 14.0232 15.0943 13.4341 15.0943ZM8.13333 17.5396H7.06667C6.47756 17.5396 6 18.0642 6 18.7113V21.0547C6 21.7018 6.47756 22.2264 7.06667 22.2264H8.13333C8.72244 22.2264 9.2 21.7018 9.2 21.0547V18.7113C9.2 18.0642 8.72244 17.5396 8.13333 17.5396Z" fill="var(--fill-0, black)"/>
</g>
</svg>
